<mxfile host="app.diagrams.net" modified="2023-10-04T20:56:27.851Z" agent="Mozilla/5.0 (Windows NT 10.0; Win64; x64; rv:109.0) Gecko/20100101 Firefox/118.0" etag="j54UjSjS9QUwzguFp97P" version="22.0.2" type="device">
  <diagram name="Pagina-1" id="sOl1VcMjrQHsRjHNT-19">
    <mxGraphModel dx="716" dy="721" grid="1" gridSize="10" guides="1" tooltips="1" connect="1" arrows="1" fold="1" page="1" pageScale="1" pageWidth="827" pageHeight="1169" math="0" shadow="0">
      <root>
        <mxCell id="0" />
        <mxCell id="1" parent="0" />
        <mxCell id="Anz2q6s57yuoqLVBVgan-1" style="rounded=0;orthogonalLoop=1;jettySize=auto;html=1;" parent="1" source="Anz2q6s57yuoqLVBVgan-5" target="Anz2q6s57yuoqLVBVgan-11" edge="1">
          <mxGeometry relative="1" as="geometry" />
        </mxCell>
        <mxCell id="Anz2q6s57yuoqLVBVgan-35" value="str_C_A" style="edgeLabel;html=1;align=center;verticalAlign=middle;resizable=0;points=[];" parent="Anz2q6s57yuoqLVBVgan-1" vertex="1" connectable="0">
          <mxGeometry x="-0.45" y="-2" relative="1" as="geometry">
            <mxPoint x="8" y="-12" as="offset" />
          </mxGeometry>
        </mxCell>
        <mxCell id="Anz2q6s57yuoqLVBVgan-5" value="q0" style="ellipse;whiteSpace=wrap;html=1;aspect=fixed;" parent="1" vertex="1">
          <mxGeometry x="120" y="160" width="40" height="40" as="geometry" />
        </mxCell>
        <mxCell id="Anz2q6s57yuoqLVBVgan-16" style="edgeStyle=orthogonalEdgeStyle;rounded=0;orthogonalLoop=1;jettySize=auto;html=1;" parent="1" source="Anz2q6s57yuoqLVBVgan-11" target="Anz2q6s57yuoqLVBVgan-13" edge="1">
          <mxGeometry relative="1" as="geometry" />
        </mxCell>
        <mxCell id="Anz2q6s57yuoqLVBVgan-36" value="int_A_C" style="edgeLabel;html=1;align=center;verticalAlign=middle;resizable=0;points=[];" parent="Anz2q6s57yuoqLVBVgan-16" vertex="1" connectable="0">
          <mxGeometry x="0.125" y="-2" relative="1" as="geometry">
            <mxPoint x="-5" y="-12" as="offset" />
          </mxGeometry>
        </mxCell>
        <mxCell id="Anz2q6s57yuoqLVBVgan-11" value="q1" style="ellipse;whiteSpace=wrap;html=1;aspect=fixed;" parent="1" vertex="1">
          <mxGeometry x="240" y="160" width="40" height="40" as="geometry" />
        </mxCell>
        <mxCell id="Anz2q6s57yuoqLVBVgan-39" style="edgeStyle=orthogonalEdgeStyle;rounded=0;orthogonalLoop=1;jettySize=auto;html=1;" parent="1" source="Anz2q6s57yuoqLVBVgan-13" target="Anz2q6s57yuoqLVBVgan-5" edge="1">
          <mxGeometry relative="1" as="geometry">
            <Array as="points">
              <mxPoint x="380" y="100" />
              <mxPoint x="140" y="100" />
            </Array>
          </mxGeometry>
        </mxCell>
        <mxCell id="Anz2q6s57yuoqLVBVgan-44" value="str_A_S" style="edgeLabel;html=1;align=center;verticalAlign=middle;resizable=0;points=[];" parent="Anz2q6s57yuoqLVBVgan-39" vertex="1" connectable="0">
          <mxGeometry x="-0.05" y="4" relative="1" as="geometry">
            <mxPoint x="-9" y="6" as="offset" />
          </mxGeometry>
        </mxCell>
        <mxCell id="Anz2q6s57yuoqLVBVgan-42" style="edgeStyle=orthogonalEdgeStyle;rounded=0;orthogonalLoop=1;jettySize=auto;html=1;" parent="1" source="Anz2q6s57yuoqLVBVgan-13" target="Anz2q6s57yuoqLVBVgan-15" edge="1">
          <mxGeometry relative="1" as="geometry" />
        </mxCell>
        <mxCell id="Anz2q6s57yuoqLVBVgan-43" value="str_A_S" style="edgeLabel;html=1;align=center;verticalAlign=middle;resizable=0;points=[];" parent="Anz2q6s57yuoqLVBVgan-42" vertex="1" connectable="0">
          <mxGeometry x="-0.125" relative="1" as="geometry">
            <mxPoint x="5" y="-10" as="offset" />
          </mxGeometry>
        </mxCell>
        <mxCell id="Anz2q6s57yuoqLVBVgan-13" value="q2" style="ellipse;whiteSpace=wrap;html=1;aspect=fixed;" parent="1" vertex="1">
          <mxGeometry x="360" y="160" width="40" height="40" as="geometry" />
        </mxCell>
        <mxCell id="Anz2q6s57yuoqLVBVgan-19" style="edgeStyle=orthogonalEdgeStyle;rounded=0;orthogonalLoop=1;jettySize=auto;html=1;" parent="1" source="Anz2q6s57yuoqLVBVgan-15" target="Anz2q6s57yuoqLVBVgan-20" edge="1">
          <mxGeometry relative="1" as="geometry">
            <mxPoint x="600" y="180" as="targetPoint" />
          </mxGeometry>
        </mxCell>
        <mxCell id="Anz2q6s57yuoqLVBVgan-48" value="bool_C_A" style="edgeLabel;html=1;align=center;verticalAlign=middle;resizable=0;points=[];" parent="Anz2q6s57yuoqLVBVgan-19" vertex="1" connectable="0">
          <mxGeometry x="-0.0808" y="-2" relative="1" as="geometry">
            <mxPoint x="11" y="58" as="offset" />
          </mxGeometry>
        </mxCell>
        <mxCell id="Anz2q6s57yuoqLVBVgan-22" style="edgeStyle=orthogonalEdgeStyle;rounded=0;orthogonalLoop=1;jettySize=auto;html=1;" parent="1" source="Anz2q6s57yuoqLVBVgan-15" edge="1">
          <mxGeometry relative="1" as="geometry">
            <mxPoint x="500" y="280" as="targetPoint" />
          </mxGeometry>
        </mxCell>
        <mxCell id="Anz2q6s57yuoqLVBVgan-45" value="bool_C_A" style="edgeLabel;html=1;align=center;verticalAlign=middle;resizable=0;points=[];" parent="Anz2q6s57yuoqLVBVgan-22" vertex="1" connectable="0">
          <mxGeometry x="0.0062" y="2" relative="1" as="geometry">
            <mxPoint x="-42" y="-1" as="offset" />
          </mxGeometry>
        </mxCell>
        <mxCell id="Anz2q6s57yuoqLVBVgan-15" value="q3" style="ellipse;whiteSpace=wrap;html=1;aspect=fixed;" parent="1" vertex="1">
          <mxGeometry x="480" y="160" width="40" height="40" as="geometry" />
        </mxCell>
        <mxCell id="Anz2q6s57yuoqLVBVgan-28" value="" style="rounded=0;orthogonalLoop=1;jettySize=auto;html=1;" parent="1" source="Anz2q6s57yuoqLVBVgan-20" target="Anz2q6s57yuoqLVBVgan-29" edge="1">
          <mxGeometry relative="1" as="geometry">
            <mxPoint x="703" y="380" as="targetPoint" />
          </mxGeometry>
        </mxCell>
        <mxCell id="Anz2q6s57yuoqLVBVgan-50" value="bool_A_S" style="edgeLabel;html=1;align=center;verticalAlign=middle;resizable=0;points=[];" parent="Anz2q6s57yuoqLVBVgan-28" vertex="1" connectable="0">
          <mxGeometry y="-3" relative="1" as="geometry">
            <mxPoint x="-38" y="2" as="offset" />
          </mxGeometry>
        </mxCell>
        <mxCell id="rrE0iFFYuUqSPgiQEUL7-3" style="rounded=0;orthogonalLoop=1;jettySize=auto;html=1;" parent="1" source="Anz2q6s57yuoqLVBVgan-20" target="rrE0iFFYuUqSPgiQEUL7-2" edge="1">
          <mxGeometry relative="1" as="geometry" />
        </mxCell>
        <mxCell id="rrE0iFFYuUqSPgiQEUL7-5" value="str_C_S" style="edgeLabel;html=1;align=center;verticalAlign=middle;resizable=0;points=[];" parent="rrE0iFFYuUqSPgiQEUL7-3" vertex="1" connectable="0">
          <mxGeometry x="0.3167" y="1" relative="1" as="geometry">
            <mxPoint x="30" y="-14" as="offset" />
          </mxGeometry>
        </mxCell>
        <mxCell id="Anz2q6s57yuoqLVBVgan-20" value="q5" style="ellipse;whiteSpace=wrap;html=1;aspect=fixed;" parent="1" vertex="1">
          <mxGeometry x="680" y="280" width="40" height="40" as="geometry" />
        </mxCell>
        <mxCell id="Anz2q6s57yuoqLVBVgan-26" style="edgeStyle=orthogonalEdgeStyle;rounded=0;orthogonalLoop=1;jettySize=auto;html=1;" parent="1" source="Anz2q6s57yuoqLVBVgan-23" target="Anz2q6s57yuoqLVBVgan-31" edge="1">
          <mxGeometry relative="1" as="geometry">
            <mxPoint x="500" y="400" as="targetPoint" />
            <Array as="points">
              <mxPoint x="500" y="660" />
            </Array>
          </mxGeometry>
        </mxCell>
        <mxCell id="Anz2q6s57yuoqLVBVgan-47" value="bool_A_S" style="edgeLabel;html=1;align=center;verticalAlign=middle;resizable=0;points=[];" parent="Anz2q6s57yuoqLVBVgan-26" vertex="1" connectable="0">
          <mxGeometry x="-0.25" y="-1" relative="1" as="geometry">
            <mxPoint x="-39" y="10" as="offset" />
          </mxGeometry>
        </mxCell>
        <mxCell id="Anz2q6s57yuoqLVBVgan-23" value="q4" style="ellipse;whiteSpace=wrap;html=1;aspect=fixed;" parent="1" vertex="1">
          <mxGeometry x="480" y="280" width="40" height="40" as="geometry" />
        </mxCell>
        <mxCell id="Anz2q6s57yuoqLVBVgan-33" style="rounded=0;orthogonalLoop=1;jettySize=auto;html=1;" parent="1" source="Anz2q6s57yuoqLVBVgan-29" target="Anz2q6s57yuoqLVBVgan-30" edge="1">
          <mxGeometry relative="1" as="geometry" />
        </mxCell>
        <mxCell id="Anz2q6s57yuoqLVBVgan-52" value="str_C_S" style="edgeLabel;html=1;align=center;verticalAlign=middle;resizable=0;points=[];" parent="Anz2q6s57yuoqLVBVgan-33" vertex="1" connectable="0">
          <mxGeometry x="0.025" y="2" relative="1" as="geometry">
            <mxPoint x="-42" as="offset" />
          </mxGeometry>
        </mxCell>
        <mxCell id="Anz2q6s57yuoqLVBVgan-29" value="q6" style="ellipse;whiteSpace=wrap;html=1;aspect=fixed;" parent="1" vertex="1">
          <mxGeometry x="600" y="400" width="40" height="40" as="geometry" />
        </mxCell>
        <mxCell id="Anz2q6s57yuoqLVBVgan-34" style="edgeStyle=orthogonalEdgeStyle;rounded=0;orthogonalLoop=1;jettySize=auto;html=1;" parent="1" source="Anz2q6s57yuoqLVBVgan-30" target="Anz2q6s57yuoqLVBVgan-31" edge="1">
          <mxGeometry relative="1" as="geometry" />
        </mxCell>
        <mxCell id="Anz2q6s57yuoqLVBVgan-53" value="str_S_C" style="edgeLabel;html=1;align=center;verticalAlign=middle;resizable=0;points=[];" parent="Anz2q6s57yuoqLVBVgan-34" vertex="1" connectable="0">
          <mxGeometry x="-0.15" y="2" relative="1" as="geometry">
            <mxPoint x="-35" y="6" as="offset" />
          </mxGeometry>
        </mxCell>
        <mxCell id="Anz2q6s57yuoqLVBVgan-30" value="q8" style="ellipse;whiteSpace=wrap;html=1;aspect=fixed;" parent="1" vertex="1">
          <mxGeometry x="680" y="520" width="40" height="40" as="geometry" />
        </mxCell>
        <mxCell id="Anz2q6s57yuoqLVBVgan-31" value="q9" style="ellipse;whiteSpace=wrap;html=1;aspect=fixed;" parent="1" vertex="1">
          <mxGeometry x="680" y="640" width="40" height="40" as="geometry" />
        </mxCell>
        <mxCell id="rrE0iFFYuUqSPgiQEUL7-4" style="rounded=0;orthogonalLoop=1;jettySize=auto;html=1;" parent="1" source="rrE0iFFYuUqSPgiQEUL7-2" target="Anz2q6s57yuoqLVBVgan-30" edge="1">
          <mxGeometry relative="1" as="geometry" />
        </mxCell>
        <mxCell id="rrE0iFFYuUqSPgiQEUL7-6" value="bool_A_S" style="edgeLabel;html=1;align=center;verticalAlign=middle;resizable=0;points=[];" parent="rrE0iFFYuUqSPgiQEUL7-4" vertex="1" connectable="0">
          <mxGeometry x="-0.2991" y="1" relative="1" as="geometry">
            <mxPoint x="31" y="12" as="offset" />
          </mxGeometry>
        </mxCell>
        <mxCell id="rrE0iFFYuUqSPgiQEUL7-2" value="q7" style="ellipse;whiteSpace=wrap;html=1;aspect=fixed;" parent="1" vertex="1">
          <mxGeometry x="760" y="400" width="40" height="40" as="geometry" />
        </mxCell>
      </root>
    </mxGraphModel>
  </diagram>
</mxfile>
